<svg display="none" xmlns="http://www.w3.org/2000/svg">
<symbol id="instagram"  viewBox="0 0 496 512">
<path d="M248.055 128.861c-70.375 0-127.139 56.765-127.139 127.138 0 70.376 56.765 127.14 127.139 127.14s127.14-56.765 127.14-127.14c0-70.374-56.766-127.138-127.14-127.138zM248.055 338.658c-45.479 0-82.657-37.070-82.657-82.659 0-45.588 37.069-82.656 82.657-82.656s82.656 37.069 82.656 82.656c0 45.589-37.18 82.659-82.656 82.659zM410.050 123.659c0 16.487-13.279 29.654-29.654 29.654-16.488 0-29.657-13.279-29.657-29.654s13.281-29.654 29.657-29.654c16.375 0 29.654 13.279 29.654 29.654zM494.257 153.757c-1.882-39.725-10.954-74.912-40.057-103.903-28.99-28.991-64.176-38.064-103.901-40.056-40.942-2.324-163.654-2.324-204.596 0-39.614 1.881-74.801 10.955-103.903 39.946s-38.064 64.178-40.056 103.903c-2.324 40.941-2.324 163.656 0 204.595 1.881 39.725 10.955 74.913 40.056 103.904 29.102 28.993 64.178 38.064 103.903 40.057 40.941 2.322 163.654 2.322 204.596 0 39.725-1.882 74.911-10.956 103.901-40.057 28.993-28.99 38.067-64.178 40.057-103.904 2.325-40.94 2.325-163.543 0-204.484zM441.365 402.173c-8.631 21.688-25.339 38.397-47.139 47.139-32.643 12.945-110.097 9.957-146.172 9.957-36.073 0-113.641 2.877-146.172-9.957-21.688-8.633-38.397-25.341-47.138-47.139-12.946-32.643-9.959-110.1-9.959-146.173s-2.877-113.638 9.959-146.171c8.631-21.688 25.339-38.397 47.138-47.139 32.642-12.946 110.1-9.959 146.172-9.959s113.639-2.877 146.172 9.959c21.688 8.631 38.397 25.339 47.139 47.139 12.945 32.642 9.959 110.1 9.959 146.171 0 36.074 2.988 113.642-9.959 146.173z"></path>
</symbol>

<symbol id="facebook" viewBox="0 0 272 512">
<path d="M254.176 287.741l14.105-91.91h-88.191v-59.644c0-25.145 12.32-49.655 51.817-49.655h40.093v-78.252c0 0-36.383-6.209-71.169-6.209-72.627 0-120.1 44.021-120.1 123.711v70.049h-80.732v91.91h80.732v222.188h99.359v-222.188h74.086z"></path>
</symbol>

<symbol id="github" viewBox="0 0 512 512">
<path d="M171.251 408.357c0 2.066-2.375 3.717-5.368 3.717-3.406 0.31-5.78-1.341-5.78-3.717 0-2.063 2.374-3.714 5.368-3.714 3.097-0.31 5.78 1.341 5.78 3.714zM139.149 403.713c-0.722 2.063 1.342 4.437 4.439 5.056 2.684 1.034 5.78 0 6.4-2.063s-1.342-4.439-4.439-5.368c-2.684-0.722-5.678 0.31-6.4 2.375zM184.774 401.957c-2.994 0.722-5.058 2.685-4.749 5.058 0.31 2.063 2.994 3.408 6.090 2.683 2.994-0.722 5.058-2.683 4.749-4.749-0.31-1.961-3.096-3.303-6.090-2.993zM252.697 6.396c-143.174 0-252.697 108.697-252.697 251.871 0 114.478 72.052 212.439 174.968 246.917 13.213 2.373 17.858-5.781 17.858-12.49 0-6.4-0.31-41.705-0.31-63.38 0 0-72.258 15.483-87.432-30.764 0 0-11.768-30.036-28.697-37.781 0 0-23.639-16.205 1.651-15.895 0 0 25.703 2.063 39.845 26.632 22.606 39.844 60.49 28.388 75.252 21.573 2.375-16.514 9.084-27.973 16.517-34.786-57.703-6.4-115.922-14.761-115.922-114.065 0-28.387 7.845-42.632 24.361-60.8-2.684-6.709-11.458-34.374 2.684-70.090 21.574-6.71 71.226 27.871 71.226 27.871 20.645-5.78 42.839-8.774 64.827-8.774 21.986 0 44.18 2.994 64.825 8.774 0 0 49.651-34.684 71.227-27.871 14.142 35.819 5.368 63.38 2.683 70.090 16.517 18.271 26.632 32.516 26.632 60.8 0 99.614-60.8 107.56-118.502 114.065 9.498 8.154 17.549 23.639 17.549 47.895 0 34.788-0.31 77.834-0.31 86.298 0 6.71 4.749 14.863 17.858 12.49 103.225-34.271 173.212-132.232 173.212-246.709 0-143.174-116.13-251.871-259.303-251.871zM100.335 362.423c-1.341 1.031-1.032 3.405 0.722 5.366 1.651 1.654 4.026 2.375 5.368 1.034 1.342-1.034 1.032-3.408-0.722-5.368-1.651-1.651-4.026-2.375-5.368-1.031zM89.187 354.060c-0.722 1.344 0.31 2.995 2.374 4.027 1.651 1.031 3.716 0.722 4.439-0.722 0.722-1.341-0.31-2.995-2.374-4.027-2.064-0.62-3.716-0.31-4.439 0.722zM122.632 390.808c-1.651 1.341-1.032 4.439 1.342 6.4 2.374 2.375 5.368 2.685 6.71 1.034 1.342-1.344 0.722-4.439-1.342-6.4-2.271-2.375-5.368-2.685-6.71-1.034zM110.865 375.635c-1.651 1.031-1.651 3.714 0 6.090 1.651 2.373 4.439 3.408 5.781 2.373 1.651-1.341 1.651-4.024 0-6.4-1.445-2.373-4.129-3.405-5.781-2.063z"></path>
</symbol>

<symbol id="ball" viewBox="0 0 512 512">
<path d="M256 0c-141.159 0-256 114.841-256 256s114.841 256 256 256c141.159 0 256-114.841 256-256s-114.841-256-256-256zM425.26 118.055c30.453 37.209 48.895 84.601 49.377 136.212-7.209-1.524-79.502-16.188-152.26-7.038-5.938-14.494-11.54-27.244-19.217-42.957 80.847-33.008 117.489-79.981 122.101-86.218zM400.95 92.769c-3.933 5.602-36.848 49.844-114.603 78.988-35.831-65.834-75.545-119.915-81.589-128.008 69.343-16.715 142.416 1.311 196.192 49.021zM163.036 58.447c5.765 7.906 44.839 62.055 81.070 126.461-102.284 27.162-192.371 26.77-202.151 26.642 14.179-67.853 59.906-124.248 121.081-153.102zM37.337 256.334c0-2.236 0.044-4.462 0.111-6.682 9.567 0.196 115.53 1.562 224.729-31.119 6.259 12.251 12.239 24.686 17.728 37.108-79.070 22.271-150.91 86.221-186.354 146.897-34.925-38.767-56.214-90.043-56.214-146.206zM121.782 428.838c22.841-46.692 84.829-106.966 172.983-137.039 30.699 79.777 43.397 146.635 46.647 165.82-70.308 29.949-154.853 21.733-219.631-28.781zM378.175 437.601c-2.241-13.303-13.878-77.314-42.479-155.907 68.522-10.966 128.722 6.987 136.204 9.349-9.746 60.841-44.67 113.385-93.724 146.558z"></path>
</symbol>

<symbol id="twitter" viewBox="0 0 640 512">
<path d="M570.321 127.641c0.4 5.598 0.4 11.197 0.4 16.795 0 170.746-129.957 367.483-367.483 367.483-73.177 0-141.155-21.193-198.338-57.981 10.397 1.199 20.393 1.599 31.191 1.599 60.38 0 115.963-20.394 160.349-55.183-56.782-1.199-104.368-38.387-120.763-89.571 7.998 1.2 15.996 1.999 24.394 1.999 11.596 0 23.194-1.6 33.989-4.398-59.181-11.997-103.568-63.981-103.568-126.76v-1.6c17.194 9.597 37.189 15.595 58.381 16.394-34.789-23.194-57.581-62.78-57.581-107.567 0-23.992 6.397-45.985 17.594-65.18 63.581 78.376 159.15 129.559 266.316 135.157-1.999-9.597-3.2-19.593-3.2-29.59 0-71.178 57.583-129.16 129.16-129.16 37.188 0 70.778 15.595 94.37 40.787 29.191-5.598 57.182-16.395 81.975-31.19-9.598 29.991-29.991 55.184-56.783 71.177 25.992-2.798 51.184-9.998 74.376-19.993-17.593 25.591-39.587 48.383-64.779 66.778z"></path>
</symbol>

<symbol id="freehand-icon" viewBox="0 0 28 28">
<path d="M21.5934 13.4064C21.3329 13.4665 21.1489 13.6988 21.1489 13.9656M21.5934 13.4064L21.6496 13.65M21.5934 13.4064C21.5933 13.4064 21.5932 13.4064 21.593 13.4065L21.6496 13.65M21.5934 13.4064C24.2485 12.789 26.1017 10.4561 26.1017 7.73096C26.1017 4.51494 23.4851 1.89828 20.2692 1.89828C17.5248 1.89828 15.1239 3.8465 14.5619 6.5284C14.5063 6.79432 14.2717 6.9848 14.0001 6.9848C13.7285 6.9848 13.4938 6.79432 13.4382 6.52841C12.8761 3.8465 10.4752 1.89828 7.7308 1.89828C4.51495 1.89828 1.89828 4.51494 1.89828 7.73096C1.89828 10.4561 3.7515 12.789 6.40659 13.4064L21.1489 13.9656M21.1489 13.9656C21.1489 14.2322 21.3328 14.4644 21.593 14.5247L21.6496 14.2812M21.1489 13.9656L21.6496 14.2812M21.6496 13.65C21.5029 13.6839 21.3989 13.8149 21.3989 13.9656C21.3989 14.1163 21.5029 14.2473 21.6496 14.2812M21.6496 13.65V14.2812M21.6496 14.2812C24.4181 14.9247 26.3517 17.3586 26.3517 20.2002C26.3517 23.5543 23.6231 26.2829 20.2692 26.2829C17.4067 26.2829 14.9035 24.2519 14.3173 21.454M21.6496 14.2812L21.5934 14.5248C24.2485 15.1421 26.1017 17.475 26.1017 20.2002C26.1017 23.4162 23.4851 26.0329 20.2692 26.0329C17.5248 26.0329 15.124 24.0847 14.562 21.4029M14.3173 21.454L14.562 21.4029M14.3173 21.454L14.5619 21.4028C14.562 21.4028 14.562 21.4029 14.562 21.4029M14.3173 21.454C14.2859 21.304 14.1534 21.1964 14.0001 21.1964C13.8467 21.1964 13.7142 21.304 13.6829 21.454M14.562 21.4029L13.4382 21.4027L13.6829 21.454M13.6829 21.454C13.0965 24.2519 10.5933 26.2829 7.7308 26.2829C4.37687 26.2829 1.64828 23.5543 1.64828 20.2002C1.64828 17.3586 3.58188 14.9247 6.35036 14.2812M13.6829 21.454L13.4382 21.4029C12.876 24.0847 10.4751 26.0329 7.7308 26.0329C4.51495 26.0329 1.89828 23.4162 1.89828 20.2002C1.89828 17.475 3.75159 15.142 6.40678 14.5247C6.40684 14.5247 6.4069 14.5247 6.40696 14.5247L6.35036 14.2812M6.35036 14.2812C6.49707 14.2473 6.60106 14.1163 6.60106 13.9656C6.60106 13.8149 6.49707 13.6839 6.35036 13.65V14.2812ZM27.25 7.73096C27.25 3.88143 24.1186 0.75 20.2692 0.75C17.5704 0.75 15.1516 2.32181 14.0001 4.66239C12.8484 2.32181 10.4294 0.75 7.7308 0.75C3.88142 0.75 0.75 3.88143 0.75 7.73096C0.75 10.4277 2.26822 12.8058 4.5914 13.9656C2.26822 15.1253 0.75 17.5034 0.75 20.2002C0.75 24.0497 3.88142 27.1812 7.7308 27.1812C10.4294 27.1812 12.8484 25.6093 14.0001 23.2688C15.1516 25.6093 17.5704 27.1812 20.2692 27.1812C24.1186 27.1812 27.25 24.0497 27.25 20.2002C27.25 17.5034 25.7318 15.1253 23.4086 13.9656C25.7318 12.8058 27.25 10.4277 27.25 7.73096Z" fill="#3DB370" stroke="#3DB370" stroke-width="0.5"/>
</symbol>

<symbol id="freehand-text-white" viewBox="0 0 153 27">
<path d="M4.335 4.72V11.965H12.945C13.435 11.965 13.8317 12.1167 14.135 12.42C14.4617 12.7233 14.625 13.12 14.625 13.61C14.625 14.03 14.4617 14.3917 14.135 14.695C13.8317 14.9983 13.435 15.15 12.945 15.15H4.335V24.32C4.335 24.7867 4.16 25.1833 3.81 25.51C3.48333 25.8367 3.08667 26 2.62 26C2.13 26 1.72167 25.8367 1.395 25.51C1.06833 25.1833 0.905 24.7867 0.905 24.32V3.18C0.905 2.71333 1.06833 2.31666 1.395 1.99C1.72167 1.66333 2.11833 1.5 2.585 1.5H14.52C15.01 1.5 15.4067 1.65167 15.71 1.955C16.0367 2.25833 16.2 2.655 16.2 3.145C16.2 3.565 16.0367 3.93833 15.71 4.265C15.3833 4.56833 14.9867 4.72 14.52 4.72H4.335ZM29.0682 7.24C29.6749 7.24 30.1999 7.40333 30.6432 7.73C31.0866 8.03333 31.3082 8.41833 31.3082 8.885C31.3082 9.445 31.1566 9.87667 30.8532 10.18C30.5732 10.46 30.2232 10.6 29.8032 10.6C29.5932 10.6 29.2782 10.53 28.8582 10.39C28.3682 10.2267 27.9832 10.145 27.7032 10.145C26.9799 10.145 26.2682 10.4017 25.5682 10.915C24.8916 11.405 24.3316 12.0933 23.8882 12.98C23.4682 13.8433 23.2582 14.8117 23.2582 15.885V24.32C23.2582 24.7867 23.0949 25.1833 22.7682 25.51C22.4649 25.8367 22.0682 26 21.5782 26C21.0882 26 20.6916 25.8483 20.3882 25.545C20.0849 25.2183 19.9332 24.81 19.9332 24.32V9.34C19.9332 8.87333 20.0849 8.47667 20.3882 8.15C20.7149 7.82333 21.1116 7.66 21.5782 7.66C22.0682 7.66 22.4649 7.82333 22.7682 8.15C23.0949 8.47667 23.2582 8.87333 23.2582 9.34V11.125C23.7716 9.98167 24.5416 9.06 25.5682 8.36C26.5949 7.63667 27.7616 7.26333 29.0682 7.24ZM49.7051 16.13C49.6818 16.55 49.5068 16.9117 49.1801 17.215C48.8535 17.495 48.4685 17.635 48.0251 17.635H35.7051C35.8685 19.3383 36.5101 20.7033 37.6301 21.73C38.7735 22.7567 40.1618 23.27 41.7951 23.27C42.9151 23.27 43.8251 23.1067 44.5251 22.78C45.2251 22.4533 45.8435 22.0333 46.3801 21.52C46.7301 21.31 47.0685 21.205 47.3951 21.205C47.7918 21.205 48.1185 21.345 48.3751 21.625C48.6551 21.905 48.7951 22.2317 48.7951 22.605C48.7951 23.095 48.5618 23.5383 48.0951 23.935C47.4185 24.6117 46.5201 25.1833 45.4001 25.65C44.2801 26.1167 43.1368 26.35 41.9701 26.35C40.0801 26.35 38.4118 25.9533 36.9651 25.16C35.5418 24.3667 34.4335 23.2583 33.6401 21.835C32.8701 20.4117 32.4851 18.8017 32.4851 17.005C32.4851 15.045 32.8818 13.33 33.6751 11.86C34.4918 10.3667 35.5535 9.22333 36.8601 8.43C38.1901 7.63667 39.6135 7.24 41.1301 7.24C42.6235 7.24 44.0235 7.625 45.3301 8.395C46.6368 9.165 47.6868 10.2267 48.4801 11.58C49.2735 12.9333 49.6818 14.45 49.7051 16.13ZM41.1301 10.32C39.8235 10.32 38.6918 10.6933 37.7351 11.44C36.7785 12.1633 36.1485 13.295 35.8451 14.835H46.1701V14.555C46.0535 13.3183 45.4935 12.3033 44.4901 11.51C43.5101 10.7167 42.3901 10.32 41.1301 10.32ZM69.6661 16.13C69.6427 16.55 69.4677 16.9117 69.1411 17.215C68.8144 17.495 68.4294 17.635 67.9861 17.635H55.6661C55.8294 19.3383 56.4711 20.7033 57.5911 21.73C58.7344 22.7567 60.1227 23.27 61.7561 23.27C62.8761 23.27 63.7861 23.1067 64.4861 22.78C65.1861 22.4533 65.8044 22.0333 66.3411 21.52C66.6911 21.31 67.0294 21.205 67.3561 21.205C67.7527 21.205 68.0794 21.345 68.3361 21.625C68.6161 21.905 68.7561 22.2317 68.7561 22.605C68.7561 23.095 68.5227 23.5383 68.0561 23.935C67.3794 24.6117 66.4811 25.1833 65.3611 25.65C64.2411 26.1167 63.0977 26.35 61.9311 26.35C60.0411 26.35 58.3727 25.9533 56.9261 25.16C55.5027 24.3667 54.3944 23.2583 53.6011 21.835C52.8311 20.4117 52.4461 18.8017 52.4461 17.005C52.4461 15.045 52.8427 13.33 53.6361 11.86C54.4527 10.3667 55.5144 9.22333 56.8211 8.43C58.1511 7.63667 59.5744 7.24 61.0911 7.24C62.5844 7.24 63.9844 7.625 65.2911 8.395C66.5977 9.165 67.6477 10.2267 68.4411 11.58C69.2344 12.9333 69.6427 14.45 69.6661 16.13ZM61.0911 10.32C59.7844 10.32 58.6527 10.6933 57.6961 11.44C56.7394 12.1633 56.1094 13.295 55.8061 14.835H66.1311V14.555C66.0144 13.3183 65.4544 12.3033 64.4511 11.51C63.4711 10.7167 62.3511 10.32 61.0911 10.32ZM82.662 7.345C86.7687 7.345 88.822 9.88833 88.822 14.975V24.32C88.822 24.7867 88.6587 25.1833 88.332 25.51C88.0287 25.8367 87.632 26 87.142 26C86.6753 26 86.2787 25.8367 85.952 25.51C85.6487 25.1833 85.497 24.7867 85.497 24.32V14.975C85.497 11.9417 84.2137 10.425 81.647 10.425C80.2703 10.425 79.127 10.8683 78.217 11.755C77.307 12.6183 76.852 13.6917 76.852 14.975V24.32C76.852 24.7867 76.6887 25.1833 76.362 25.51C76.0587 25.8367 75.662 26 75.172 26C74.682 26 74.2853 25.8483 73.982 25.545C73.6787 25.2183 73.527 24.81 73.527 24.32V1.78C73.527 1.31333 73.6787 0.916666 73.982 0.59C74.3087 0.263333 74.7053 0.0999997 75.172 0.0999997C75.662 0.0999997 76.0587 0.263333 76.362 0.59C76.6887 0.916666 76.852 1.31333 76.852 1.78V10.635C77.4353 9.725 78.252 8.955 79.302 8.325C80.352 7.67167 81.472 7.345 82.662 7.345ZM108.671 7.415C109.161 7.415 109.557 7.57833 109.861 7.905C110.187 8.20833 110.351 8.61667 110.351 9.13V24.32C110.351 24.7867 110.187 25.1833 109.861 25.51C109.557 25.8367 109.161 26 108.671 26C108.181 26 107.784 25.8483 107.481 25.545C107.177 25.2183 107.026 24.81 107.026 24.32V23.41C106.419 24.2267 105.591 24.9267 104.541 25.51C103.491 26.07 102.359 26.35 101.146 26.35C99.5589 26.35 98.1122 25.9417 96.8055 25.125C95.5222 24.3083 94.5072 23.1767 93.7605 21.73C93.0372 20.26 92.6755 18.615 92.6755 16.795C92.6755 14.975 93.0372 13.3417 93.7605 11.895C94.5072 10.425 95.5222 9.28167 96.8055 8.465C98.0889 7.64833 99.5005 7.24 101.041 7.24C102.277 7.24 103.421 7.49667 104.471 8.01C105.544 8.52333 106.396 9.17667 107.026 9.97V9.13C107.026 8.64 107.177 8.23167 107.481 7.905C107.784 7.57833 108.181 7.415 108.671 7.415ZM101.531 23.27C102.627 23.27 103.596 22.99 104.436 22.43C105.299 21.87 105.964 21.1 106.431 20.12C106.921 19.14 107.166 18.0317 107.166 16.795C107.166 15.5817 106.921 14.485 106.431 13.505C105.964 12.525 105.299 11.755 104.436 11.195C103.596 10.6117 102.627 10.32 101.531 10.32C100.434 10.32 99.4539 10.6 98.5905 11.16C97.7505 11.72 97.0855 12.49 96.5955 13.47C96.1289 14.45 95.8955 15.5583 95.8955 16.795C95.8955 18.0317 96.1289 19.14 96.5955 20.12C97.0855 21.1 97.7505 21.87 98.5905 22.43C99.4539 22.99 100.434 23.27 101.531 23.27ZM124.64 7.24C128.84 7.24 130.94 9.76 130.94 14.8V24.32C130.94 24.7867 130.776 25.1833 130.45 25.51C130.146 25.8367 129.75 26 129.26 26C128.793 26 128.396 25.8367 128.07 25.51C127.766 25.1833 127.615 24.7867 127.615 24.32V14.835C127.615 13.4583 127.3 12.3617 126.67 11.545C126.04 10.7283 125.013 10.32 123.59 10.32C122.656 10.32 121.805 10.53 121.035 10.95C120.288 11.3467 119.693 11.895 119.25 12.595C118.83 13.2717 118.62 14.0183 118.62 14.835V24.32C118.62 24.7867 118.456 25.1833 118.13 25.51C117.826 25.8367 117.43 26 116.94 26C116.45 26 116.053 25.8483 115.75 25.545C115.446 25.2183 115.295 24.81 115.295 24.32V9.34C115.295 8.87333 115.446 8.47667 115.75 8.15C116.076 7.82333 116.473 7.66 116.94 7.66C117.43 7.66 117.826 7.82333 118.13 8.15C118.456 8.47667 118.62 8.87333 118.62 9.34V10.565C119.226 9.63167 120.066 8.85 121.14 8.22C122.236 7.56667 123.403 7.24 124.64 7.24ZM150.78 0.0999997C151.27 0.0999997 151.667 0.263333 151.97 0.59C152.297 0.893332 152.46 1.29 152.46 1.78V24.32C152.46 24.7867 152.297 25.1833 151.97 25.51C151.667 25.8367 151.27 26 150.78 26C150.29 26 149.893 25.8483 149.59 25.545C149.287 25.2183 149.135 24.81 149.135 24.32V23.34C148.552 24.18 147.723 24.8917 146.65 25.475C145.6 26.0583 144.468 26.35 143.255 26.35C141.668 26.35 140.233 25.9417 138.95 25.125C137.667 24.3083 136.652 23.1767 135.905 21.73C135.158 20.26 134.785 18.615 134.785 16.795C134.785 14.975 135.147 13.3417 135.87 11.895C136.617 10.425 137.632 9.28167 138.915 8.465C140.198 7.64833 141.61 7.24 143.15 7.24C144.387 7.24 145.53 7.49667 146.58 8.01C147.63 8.52333 148.482 9.18833 149.135 10.005V1.78C149.135 1.29 149.287 0.893332 149.59 0.59C149.893 0.263333 150.29 0.0999997 150.78 0.0999997ZM143.64 23.27C144.737 23.27 145.705 22.99 146.545 22.43C147.408 21.87 148.073 21.1 148.54 20.12C149.03 19.14 149.275 18.0317 149.275 16.795C149.275 15.5817 149.03 14.485 148.54 13.505C148.073 12.5017 147.408 11.72 146.545 11.16C145.705 10.6 144.737 10.32 143.64 10.32C142.543 10.32 141.563 10.6 140.7 11.16C139.86 11.72 139.195 12.5017 138.705 13.505C138.238 14.485 138.005 15.5817 138.005 16.795C138.005 18.0317 138.238 19.14 138.705 20.12C139.195 21.1 139.86 21.87 140.7 22.43C141.563 22.99 142.543 23.27 143.64 23.27Z" fill="#F2F2F2"/>

</symbol>
</svg>



