<svg display="none" xmlns="http://www.w3.org/2000/svg">
<symbol id="instagram"  viewBox="0 0 496 512">
<path d="M248.055 128.861c-70.375 0-127.139 56.765-127.139 127.138 0 70.376 56.765 127.14 127.139 127.14s127.14-56.765 127.14-127.14c0-70.374-56.766-127.138-127.14-127.138zM248.055 338.658c-45.479 0-82.657-37.070-82.657-82.659 0-45.588 37.069-82.656 82.657-82.656s82.656 37.069 82.656 82.656c0 45.589-37.18 82.659-82.656 82.659zM410.050 123.659c0 16.487-13.279 29.654-29.654 29.654-16.488 0-29.657-13.279-29.657-29.654s13.281-29.654 29.657-29.654c16.375 0 29.654 13.279 29.654 29.654zM494.257 153.757c-1.882-39.725-10.954-74.912-40.057-103.903-28.99-28.991-64.176-38.064-103.901-40.056-40.942-2.324-163.654-2.324-204.596 0-39.614 1.881-74.801 10.955-103.903 39.946s-38.064 64.178-40.056 103.903c-2.324 40.941-2.324 163.656 0 204.595 1.881 39.725 10.955 74.913 40.056 103.904 29.102 28.993 64.178 38.064 103.903 40.057 40.941 2.322 163.654 2.322 204.596 0 39.725-1.882 74.911-10.956 103.901-40.057 28.993-28.99 38.067-64.178 40.057-103.904 2.325-40.94 2.325-163.543 0-204.484zM441.365 402.173c-8.631 21.688-25.339 38.397-47.139 47.139-32.643 12.945-110.097 9.957-146.172 9.957-36.073 0-113.641 2.877-146.172-9.957-21.688-8.633-38.397-25.341-47.138-47.139-12.946-32.643-9.959-110.1-9.959-146.173s-2.877-113.638 9.959-146.171c8.631-21.688 25.339-38.397 47.138-47.139 32.642-12.946 110.1-9.959 146.172-9.959s113.639-2.877 146.172 9.959c21.688 8.631 38.397 25.339 47.139 47.139 12.945 32.642 9.959 110.1 9.959 146.171 0 36.074 2.988 113.642-9.959 146.173z"></path>
</symbol>

<symbol id="facebook" viewBox="0 0 272 512">
<path d="M254.176 287.741l14.105-91.91h-88.191v-59.644c0-25.145 12.32-49.655 51.817-49.655h40.093v-78.252c0 0-36.383-6.209-71.169-6.209-72.627 0-120.1 44.021-120.1 123.711v70.049h-80.732v91.91h80.732v222.188h99.359v-222.188h74.086z"></path>
</symbol>

<symbol id="github" viewBox="0 0 512 512">
<path d="M171.251 408.357c0 2.066-2.375 3.717-5.368 3.717-3.406 0.31-5.78-1.341-5.78-3.717 0-2.063 2.374-3.714 5.368-3.714 3.097-0.31 5.78 1.341 5.78 3.714zM139.149 403.713c-0.722 2.063 1.342 4.437 4.439 5.056 2.684 1.034 5.78 0 6.4-2.063s-1.342-4.439-4.439-5.368c-2.684-0.722-5.678 0.31-6.4 2.375zM184.774 401.957c-2.994 0.722-5.058 2.685-4.749 5.058 0.31 2.063 2.994 3.408 6.090 2.683 2.994-0.722 5.058-2.683 4.749-4.749-0.31-1.961-3.096-3.303-6.090-2.993zM252.697 6.396c-143.174 0-252.697 108.697-252.697 251.871 0 114.478 72.052 212.439 174.968 246.917 13.213 2.373 17.858-5.781 17.858-12.49 0-6.4-0.31-41.705-0.31-63.38 0 0-72.258 15.483-87.432-30.764 0 0-11.768-30.036-28.697-37.781 0 0-23.639-16.205 1.651-15.895 0 0 25.703 2.063 39.845 26.632 22.606 39.844 60.49 28.388 75.252 21.573 2.375-16.514 9.084-27.973 16.517-34.786-57.703-6.4-115.922-14.761-115.922-114.065 0-28.387 7.845-42.632 24.361-60.8-2.684-6.709-11.458-34.374 2.684-70.090 21.574-6.71 71.226 27.871 71.226 27.871 20.645-5.78 42.839-8.774 64.827-8.774 21.986 0 44.18 2.994 64.825 8.774 0 0 49.651-34.684 71.227-27.871 14.142 35.819 5.368 63.38 2.683 70.090 16.517 18.271 26.632 32.516 26.632 60.8 0 99.614-60.8 107.56-118.502 114.065 9.498 8.154 17.549 23.639 17.549 47.895 0 34.788-0.31 77.834-0.31 86.298 0 6.71 4.749 14.863 17.858 12.49 103.225-34.271 173.212-132.232 173.212-246.709 0-143.174-116.13-251.871-259.303-251.871zM100.335 362.423c-1.341 1.031-1.032 3.405 0.722 5.366 1.651 1.654 4.026 2.375 5.368 1.034 1.342-1.034 1.032-3.408-0.722-5.368-1.651-1.651-4.026-2.375-5.368-1.031zM89.187 354.060c-0.722 1.344 0.31 2.995 2.374 4.027 1.651 1.031 3.716 0.722 4.439-0.722 0.722-1.341-0.31-2.995-2.374-4.027-2.064-0.62-3.716-0.31-4.439 0.722zM122.632 390.808c-1.651 1.341-1.032 4.439 1.342 6.4 2.374 2.375 5.368 2.685 6.71 1.034 1.342-1.344 0.722-4.439-1.342-6.4-2.271-2.375-5.368-2.685-6.71-1.034zM110.865 375.635c-1.651 1.031-1.651 3.714 0 6.090 1.651 2.373 4.439 3.408 5.781 2.373 1.651-1.341 1.651-4.024 0-6.4-1.445-2.373-4.129-3.405-5.781-2.063z"></path>
</symbol>

<symbol id="ball" viewBox="0 0 512 512">
<path d="M256 0c-141.159 0-256 114.841-256 256s114.841 256 256 256c141.159 0 256-114.841 256-256s-114.841-256-256-256zM425.26 118.055c30.453 37.209 48.895 84.601 49.377 136.212-7.209-1.524-79.502-16.188-152.26-7.038-5.938-14.494-11.54-27.244-19.217-42.957 80.847-33.008 117.489-79.981 122.101-86.218zM400.95 92.769c-3.933 5.602-36.848 49.844-114.603 78.988-35.831-65.834-75.545-119.915-81.589-128.008 69.343-16.715 142.416 1.311 196.192 49.021zM163.036 58.447c5.765 7.906 44.839 62.055 81.070 126.461-102.284 27.162-192.371 26.77-202.151 26.642 14.179-67.853 59.906-124.248 121.081-153.102zM37.337 256.334c0-2.236 0.044-4.462 0.111-6.682 9.567 0.196 115.53 1.562 224.729-31.119 6.259 12.251 12.239 24.686 17.728 37.108-79.070 22.271-150.91 86.221-186.354 146.897-34.925-38.767-56.214-90.043-56.214-146.206zM121.782 428.838c22.841-46.692 84.829-106.966 172.983-137.039 30.699 79.777 43.397 146.635 46.647 165.82-70.308 29.949-154.853 21.733-219.631-28.781zM378.175 437.601c-2.241-13.303-13.878-77.314-42.479-155.907 68.522-10.966 128.722 6.987 136.204 9.349-9.746 60.841-44.67 113.385-93.724 146.558z"></path>
</symbol>

<symbol id="twitter" viewBox="0 0 640 512">
<path d="M570.321 127.641c0.4 5.598 0.4 11.197 0.4 16.795 0 170.746-129.957 367.483-367.483 367.483-73.177 0-141.155-21.193-198.338-57.981 10.397 1.199 20.393 1.599 31.191 1.599 60.38 0 115.963-20.394 160.349-55.183-56.782-1.199-104.368-38.387-120.763-89.571 7.998 1.2 15.996 1.999 24.394 1.999 11.596 0 23.194-1.6 33.989-4.398-59.181-11.997-103.568-63.981-103.568-126.76v-1.6c17.194 9.597 37.189 15.595 58.381 16.394-34.789-23.194-57.581-62.78-57.581-107.567 0-23.992 6.397-45.985 17.594-65.18 63.581 78.376 159.15 129.559 266.316 135.157-1.999-9.597-3.2-19.593-3.2-29.59 0-71.178 57.583-129.16 129.16-129.16 37.188 0 70.778 15.595 94.37 40.787 29.191-5.598 57.182-16.395 81.975-31.19-9.598 29.991-29.991 55.184-56.783 71.177 25.992-2.798 51.184-9.998 74.376-19.993-17.593 25.591-39.587 48.383-64.779 66.778z"></path>
</symbol>

<symbol id="freehand" viewBox="0 0 512 512">
<path stroke-linejoin="miter" stroke-linecap="butt" stroke-miterlimit="4" stroke-width="9.1429" stroke="#000" fill="#000" d="M398.125 245.534c-4.876 1.125-8.32 5.472-8.32 10.466M398.125 245.534l1.051 4.56M398.125 245.534c-0.002 0-0.003 0-0.007 0.002l1.060 4.558M398.125 245.534c49.695-11.556 84.382-55.221 84.382-106.227 0-60.194-48.975-109.17-109.167-109.17-51.367 0-96.305 36.465-106.823 86.662-1.041 4.977-5.432 8.543-10.515 8.543s-9.476-3.565-10.517-8.543c-10.521-50.197-55.459-86.662-106.826-86.662-60.191 0-109.168 48.976-109.168 109.17 0 51.006 34.687 94.672 84.382 106.227l275.934 10.466M389.805 256c0 4.99 3.442 9.336 8.312 10.464l1.060-4.558M389.805 256l9.372 5.907M399.178 250.094c-2.746 0.635-4.692 3.087-4.692 5.907s1.947 5.272 4.692 5.907M399.178 250.094v11.814M399.178 261.908c51.818 12.044 88.010 57.599 88.010 110.786 0 62.779-51.071 113.85-113.846 113.85-53.577 0-100.43-38.014-111.401-90.382M399.178 261.908l-1.051 4.56c49.695 11.554 84.382 55.219 84.382 106.226 0 60.194-48.975 109.171-109.167 109.171-51.367 0-96.303-36.464-106.822-86.66M261.939 396.161l4.579-0.957M261.939 396.161l4.578-0.958c0.002 0 0.002 0.002 0.002 0.002M261.939 396.161c-0.587-2.808-3.067-4.822-5.937-4.822-2.871 0-5.351 2.014-5.937 4.822M266.519 395.204l-21.034-0.003 4.579 0.96M250.065 396.161c-10.976 52.368-57.828 90.382-111.406 90.382-62.775 0-113.846-51.071-113.846-113.85 0-53.186 36.191-98.741 88.009-110.786M250.065 396.161l-4.579-0.957c-10.523 50.195-55.46 86.66-106.826 86.66-60.191 0-109.168-48.976-109.168-109.171 0-51.007 34.688-94.675 84.385-106.228 0.001 0 0.002 0 0.004 0l-1.059-4.558M112.822 261.908c2.746-0.635 4.692-3.087 4.692-5.907s-1.947-5.273-4.692-5.907v11.814zM504 139.306c0-72.052-58.611-130.662-130.659-130.662-50.514 0-95.786 29.419-117.339 73.228-21.556-43.809-66.833-73.228-117.342-73.228-72.049 0-130.66 58.611-130.66 130.662 0 50.475 28.416 94.986 71.899 116.694-43.483 21.706-71.899 66.216-71.899 116.693 0 72.051 58.611 130.663 130.66 130.663 50.51 0 95.786-29.421 117.342-73.228 21.553 43.807 66.825 73.228 117.339 73.228 72.049 0 130.659-58.611 130.659-130.663 0-50.476-28.416-94.986-71.899-116.693 43.483-21.708 71.899-66.219 71.899-116.695z"></path>
</symbol>
</svg>



