<!-- Generated by IcoMoon.io -->
<svg  xmlns="http://www.w3.org/2000/svg" viewBox="0 0 352 512">
<path d="M301.422 0h-250.844c-25.149 0-45.608 19.142-45.608 42.666v426.668c0 23.527 20.462 42.666 45.608 42.666h250.844c25.15 0 45.608-19.139 45.608-42.666v-426.668c0-23.527-20.459-42.666-45.608-42.666zM301.422 494.938h-250.844c-15.088 0-27.366-11.483-27.366-25.601v-426.668c0-14.117 12.278-25.6 27.366-25.6h250.844c15.089 0 27.366 11.483 27.366 25.6v377.603h-261.106c-5.038 0-9.121 3.818-9.121 8.534 0 4.712 4.086 8.534 9.121 8.534h261.106v32c0 14.118-12.277 25.601-27.366 25.601zM196.524 464.003c0 4.712-4.085 8.534-9.12 8.534h-22.806c-5.037 0-9.12-3.822-9.12-8.534 0-4.713 4.085-8.534 9.12-8.534h22.806c5.037 0 9.12 3.818 9.12 8.534zM106.424 337.068h139.151c15.601 0 27.759-12.688 26.071-27.19l-12.2-104.827c-1.45-12.472-12.659-21.879-26.071-21.879h-8.442v-15.799c-0.001-25.241-21.952-45.775-48.934-45.775s-48.929 20.535-48.929 45.775v15.798h-8.445c-13.41 0-24.617 9.406-26.071 21.88l-12.2 104.827c-1.689 14.507 10.479 27.19 26.070 27.19zM98.491 311.728l12.2-104.827c0.442-3.798 3.853-6.657 7.935-6.657h8.445v13.314c0 4.712 4.083 8.534 9.121 8.534s9.121-3.822 9.121-8.534v-46.178c0-15.831 13.767-28.707 30.688-28.707 16.922 0 30.688 12.879 30.688 28.707v15.799h-39.456c-5.037 0-9.12 3.822-9.12 8.534 0 4.713 4.085 8.534 9.12 8.534h39.456v13.314c0 4.712 4.085 8.534 9.121 8.534s9.12-3.822 9.12-8.534v-13.314h8.446c4.081 0 7.49 2.863 7.934 6.657l12.2 104.827c0.512 4.411-3.161 8.274-7.935 8.274h-139.147c-4.752 0-8.448-3.846-7.935-8.274z"></path>
</svg>
