<!-- Generated by IcoMoon.io -->
<svg xmlns="http://www.w3.org/2000/svg" viewBox="0 0 512 512">
<path d="M256 0c-141.159 0-256 114.841-256 256s114.841 256 256 256c141.159 0 256-114.841 256-256s-114.841-256-256-256zM425.26 118.055c30.453 37.209 48.895 84.601 49.377 136.212-7.209-1.524-79.502-16.188-152.26-7.038-5.938-14.494-11.54-27.244-19.217-42.957 80.847-33.008 117.489-79.981 122.101-86.218zM400.95 92.769c-3.933 5.602-36.848 49.844-114.603 78.988-35.831-65.834-75.545-119.915-81.589-128.008 69.343-16.715 142.416 1.311 196.192 49.021zM163.036 58.447c5.765 7.906 44.839 62.055 81.070 126.461-102.284 27.162-192.371 26.77-202.151 26.642 14.179-67.853 59.906-124.248 121.081-153.102zM37.337 256.334c0-2.236 0.044-4.462 0.111-6.682 9.567 0.196 115.53 1.562 224.729-31.119 6.259 12.251 12.239 24.686 17.728 37.108-79.070 22.271-150.91 86.221-186.354 146.897-34.925-38.767-56.214-90.043-56.214-146.206zM121.782 428.838c22.841-46.692 84.829-106.966 172.983-137.039 30.699 79.777 43.397 146.635 46.647 165.82-70.308 29.949-154.853 21.733-219.631-28.781zM378.175 437.601c-2.241-13.303-13.878-77.314-42.479-155.907 68.522-10.966 128.722 6.987 136.204 9.349-9.746 60.841-44.67 113.385-93.724 146.558z"></path>
</svg>
