<svg viewBox="0 0 153 27" xmlns="http://www.w3.org/2000/svg">
<path d="M4.335 4.72V11.965H12.945C13.435 11.965 13.8317 12.1167 14.135 12.42C14.4617 12.7233 14.625 13.12 14.625 13.61C14.625 14.03 14.4617 14.3917 14.135 14.695C13.8317 14.9983 13.435 15.15 12.945 15.15H4.335V24.32C4.335 24.7867 4.16 25.1833 3.81 25.51C3.48333 25.8367 3.08667 26 2.62 26C2.13 26 1.72167 25.8367 1.395 25.51C1.06833 25.1833 0.905 24.7867 0.905 24.32V3.18C0.905 2.71333 1.06833 2.31666 1.395 1.99C1.72167 1.66333 2.11833 1.5 2.585 1.5H14.52C15.01 1.5 15.4067 1.65167 15.71 1.955C16.0367 2.25833 16.2 2.655 16.2 3.145C16.2 3.565 16.0367 3.93833 15.71 4.265C15.3833 4.56833 14.9867 4.72 14.52 4.72H4.335ZM29.0682 7.24C29.6749 7.24 30.1999 7.40333 30.6432 7.73C31.0866 8.03333 31.3082 8.41833 31.3082 8.885C31.3082 9.445 31.1566 9.87667 30.8532 10.18C30.5732 10.46 30.2232 10.6 29.8032 10.6C29.5932 10.6 29.2782 10.53 28.8582 10.39C28.3682 10.2267 27.9832 10.145 27.7032 10.145C26.9799 10.145 26.2682 10.4017 25.5682 10.915C24.8916 11.405 24.3316 12.0933 23.8882 12.98C23.4682 13.8433 23.2582 14.8117 23.2582 15.885V24.32C23.2582 24.7867 23.0949 25.1833 22.7682 25.51C22.4649 25.8367 22.0682 26 21.5782 26C21.0882 26 20.6916 25.8483 20.3882 25.545C20.0849 25.2183 19.9332 24.81 19.9332 24.32V9.34C19.9332 8.87333 20.0849 8.47667 20.3882 8.15C20.7149 7.82333 21.1116 7.66 21.5782 7.66C22.0682 7.66 22.4649 7.82333 22.7682 8.15C23.0949 8.47667 23.2582 8.87333 23.2582 9.34V11.125C23.7716 9.98167 24.5416 9.06 25.5682 8.36C26.5949 7.63667 27.7616 7.26333 29.0682 7.24ZM49.7051 16.13C49.6818 16.55 49.5068 16.9117 49.1801 17.215C48.8535 17.495 48.4685 17.635 48.0251 17.635H35.7051C35.8685 19.3383 36.5101 20.7033 37.6301 21.73C38.7735 22.7567 40.1618 23.27 41.7951 23.27C42.9151 23.27 43.8251 23.1067 44.5251 22.78C45.2251 22.4533 45.8435 22.0333 46.3801 21.52C46.7301 21.31 47.0685 21.205 47.3951 21.205C47.7918 21.205 48.1185 21.345 48.3751 21.625C48.6551 21.905 48.7951 22.2317 48.7951 22.605C48.7951 23.095 48.5618 23.5383 48.0951 23.935C47.4185 24.6117 46.5201 25.1833 45.4001 25.65C44.2801 26.1167 43.1368 26.35 41.9701 26.35C40.0801 26.35 38.4118 25.9533 36.9651 25.16C35.5418 24.3667 34.4335 23.2583 33.6401 21.835C32.8701 20.4117 32.4851 18.8017 32.4851 17.005C32.4851 15.045 32.8818 13.33 33.6751 11.86C34.4918 10.3667 35.5535 9.22333 36.8601 8.43C38.1901 7.63667 39.6135 7.24 41.1301 7.24C42.6235 7.24 44.0235 7.625 45.3301 8.395C46.6368 9.165 47.6868 10.2267 48.4801 11.58C49.2735 12.9333 49.6818 14.45 49.7051 16.13ZM41.1301 10.32C39.8235 10.32 38.6918 10.6933 37.7351 11.44C36.7785 12.1633 36.1485 13.295 35.8451 14.835H46.1701V14.555C46.0535 13.3183 45.4935 12.3033 44.4901 11.51C43.5101 10.7167 42.3901 10.32 41.1301 10.32ZM69.6661 16.13C69.6427 16.55 69.4677 16.9117 69.1411 17.215C68.8144 17.495 68.4294 17.635 67.9861 17.635H55.6661C55.8294 19.3383 56.4711 20.7033 57.5911 21.73C58.7344 22.7567 60.1227 23.27 61.7561 23.27C62.8761 23.27 63.7861 23.1067 64.4861 22.78C65.1861 22.4533 65.8044 22.0333 66.3411 21.52C66.6911 21.31 67.0294 21.205 67.3561 21.205C67.7527 21.205 68.0794 21.345 68.3361 21.625C68.6161 21.905 68.7561 22.2317 68.7561 22.605C68.7561 23.095 68.5227 23.5383 68.0561 23.935C67.3794 24.6117 66.4811 25.1833 65.3611 25.65C64.2411 26.1167 63.0977 26.35 61.9311 26.35C60.0411 26.35 58.3727 25.9533 56.9261 25.16C55.5027 24.3667 54.3944 23.2583 53.6011 21.835C52.8311 20.4117 52.4461 18.8017 52.4461 17.005C52.4461 15.045 52.8427 13.33 53.6361 11.86C54.4527 10.3667 55.5144 9.22333 56.8211 8.43C58.1511 7.63667 59.5744 7.24 61.0911 7.24C62.5844 7.24 63.9844 7.625 65.2911 8.395C66.5977 9.165 67.6477 10.2267 68.4411 11.58C69.2344 12.9333 69.6427 14.45 69.6661 16.13ZM61.0911 10.32C59.7844 10.32 58.6527 10.6933 57.6961 11.44C56.7394 12.1633 56.1094 13.295 55.8061 14.835H66.1311V14.555C66.0144 13.3183 65.4544 12.3033 64.4511 11.51C63.4711 10.7167 62.3511 10.32 61.0911 10.32ZM82.662 7.345C86.7687 7.345 88.822 9.88833 88.822 14.975V24.32C88.822 24.7867 88.6587 25.1833 88.332 25.51C88.0287 25.8367 87.632 26 87.142 26C86.6753 26 86.2787 25.8367 85.952 25.51C85.6487 25.1833 85.497 24.7867 85.497 24.32V14.975C85.497 11.9417 84.2137 10.425 81.647 10.425C80.2703 10.425 79.127 10.8683 78.217 11.755C77.307 12.6183 76.852 13.6917 76.852 14.975V24.32C76.852 24.7867 76.6887 25.1833 76.362 25.51C76.0587 25.8367 75.662 26 75.172 26C74.682 26 74.2853 25.8483 73.982 25.545C73.6787 25.2183 73.527 24.81 73.527 24.32V1.78C73.527 1.31333 73.6787 0.916666 73.982 0.59C74.3087 0.263333 74.7053 0.0999997 75.172 0.0999997C75.662 0.0999997 76.0587 0.263333 76.362 0.59C76.6887 0.916666 76.852 1.31333 76.852 1.78V10.635C77.4353 9.725 78.252 8.955 79.302 8.325C80.352 7.67167 81.472 7.345 82.662 7.345ZM108.671 7.415C109.161 7.415 109.557 7.57833 109.861 7.905C110.187 8.20833 110.351 8.61667 110.351 9.13V24.32C110.351 24.7867 110.187 25.1833 109.861 25.51C109.557 25.8367 109.161 26 108.671 26C108.181 26 107.784 25.8483 107.481 25.545C107.177 25.2183 107.026 24.81 107.026 24.32V23.41C106.419 24.2267 105.591 24.9267 104.541 25.51C103.491 26.07 102.359 26.35 101.146 26.35C99.5589 26.35 98.1122 25.9417 96.8055 25.125C95.5222 24.3083 94.5072 23.1767 93.7605 21.73C93.0372 20.26 92.6755 18.615 92.6755 16.795C92.6755 14.975 93.0372 13.3417 93.7605 11.895C94.5072 10.425 95.5222 9.28167 96.8055 8.465C98.0889 7.64833 99.5005 7.24 101.041 7.24C102.277 7.24 103.421 7.49667 104.471 8.01C105.544 8.52333 106.396 9.17667 107.026 9.97V9.13C107.026 8.64 107.177 8.23167 107.481 7.905C107.784 7.57833 108.181 7.415 108.671 7.415ZM101.531 23.27C102.627 23.27 103.596 22.99 104.436 22.43C105.299 21.87 105.964 21.1 106.431 20.12C106.921 19.14 107.166 18.0317 107.166 16.795C107.166 15.5817 106.921 14.485 106.431 13.505C105.964 12.525 105.299 11.755 104.436 11.195C103.596 10.6117 102.627 10.32 101.531 10.32C100.434 10.32 99.4539 10.6 98.5905 11.16C97.7505 11.72 97.0855 12.49 96.5955 13.47C96.1289 14.45 95.8955 15.5583 95.8955 16.795C95.8955 18.0317 96.1289 19.14 96.5955 20.12C97.0855 21.1 97.7505 21.87 98.5905 22.43C99.4539 22.99 100.434 23.27 101.531 23.27ZM124.64 7.24C128.84 7.24 130.94 9.76 130.94 14.8V24.32C130.94 24.7867 130.776 25.1833 130.45 25.51C130.146 25.8367 129.75 26 129.26 26C128.793 26 128.396 25.8367 128.07 25.51C127.766 25.1833 127.615 24.7867 127.615 24.32V14.835C127.615 13.4583 127.3 12.3617 126.67 11.545C126.04 10.7283 125.013 10.32 123.59 10.32C122.656 10.32 121.805 10.53 121.035 10.95C120.288 11.3467 119.693 11.895 119.25 12.595C118.83 13.2717 118.62 14.0183 118.62 14.835V24.32C118.62 24.7867 118.456 25.1833 118.13 25.51C117.826 25.8367 117.43 26 116.94 26C116.45 26 116.053 25.8483 115.75 25.545C115.446 25.2183 115.295 24.81 115.295 24.32V9.34C115.295 8.87333 115.446 8.47667 115.75 8.15C116.076 7.82333 116.473 7.66 116.94 7.66C117.43 7.66 117.826 7.82333 118.13 8.15C118.456 8.47667 118.62 8.87333 118.62 9.34V10.565C119.226 9.63167 120.066 8.85 121.14 8.22C122.236 7.56667 123.403 7.24 124.64 7.24ZM150.78 0.0999997C151.27 0.0999997 151.667 0.263333 151.97 0.59C152.297 0.893332 152.46 1.29 152.46 1.78V24.32C152.46 24.7867 152.297 25.1833 151.97 25.51C151.667 25.8367 151.27 26 150.78 26C150.29 26 149.893 25.8483 149.59 25.545C149.287 25.2183 149.135 24.81 149.135 24.32V23.34C148.552 24.18 147.723 24.8917 146.65 25.475C145.6 26.0583 144.468 26.35 143.255 26.35C141.668 26.35 140.233 25.9417 138.95 25.125C137.667 24.3083 136.652 23.1767 135.905 21.73C135.158 20.26 134.785 18.615 134.785 16.795C134.785 14.975 135.147 13.3417 135.87 11.895C136.617 10.425 137.632 9.28167 138.915 8.465C140.198 7.64833 141.61 7.24 143.15 7.24C144.387 7.24 145.53 7.49667 146.58 8.01C147.63 8.52333 148.482 9.18833 149.135 10.005V1.78C149.135 1.29 149.287 0.893332 149.59 0.59C149.893 0.263333 150.29 0.0999997 150.78 0.0999997ZM143.64 23.27C144.737 23.27 145.705 22.99 146.545 22.43C147.408 21.87 148.073 21.1 148.54 20.12C149.03 19.14 149.275 18.0317 149.275 16.795C149.275 15.5817 149.03 14.485 148.54 13.505C148.073 12.5017 147.408 11.72 146.545 11.16C145.705 10.6 144.737 10.32 143.64 10.32C142.543 10.32 141.563 10.6 140.7 11.16C139.86 11.72 139.195 12.5017 138.705 13.505C138.238 14.485 138.005 15.5817 138.005 16.795C138.005 18.0317 138.238 19.14 138.705 20.12C139.195 21.1 139.86 21.87 140.7 22.43C141.563 22.99 142.543 23.27 143.64 23.27Z" fill="#F2F2F2"/>
</svg>
