<!-- Generated by IcoMoon.io -->
<svg xmlns="http://www.w3.org/2000/svg" viewBox="0 0 512 512">
<path stroke-linejoin="miter" stroke-linecap="butt" stroke-miterlimit="4" stroke-width="9.1429" stroke="#000" fill="#000" d="M398.125 245.534c-4.876 1.125-8.32 5.472-8.32 10.466M398.125 245.534l1.051 4.56M398.125 245.534c-0.002 0-0.003 0-0.007 0.002l1.060 4.558M398.125 245.534c49.695-11.556 84.382-55.221 84.382-106.227 0-60.194-48.975-109.17-109.167-109.17-51.367 0-96.305 36.465-106.823 86.662-1.041 4.977-5.432 8.543-10.515 8.543s-9.476-3.565-10.517-8.543c-10.521-50.197-55.459-86.662-106.826-86.662-60.191 0-109.168 48.976-109.168 109.17 0 51.006 34.687 94.672 84.382 106.227l275.934 10.466M389.805 256c0 4.99 3.442 9.336 8.312 10.464l1.060-4.558M389.805 256l9.372 5.907M399.178 250.094c-2.746 0.635-4.692 3.087-4.692 5.907s1.947 5.272 4.692 5.907M399.178 250.094v11.814M399.178 261.908c51.818 12.044 88.010 57.599 88.010 110.786 0 62.779-51.071 113.85-113.846 113.85-53.577 0-100.43-38.014-111.401-90.382M399.178 261.908l-1.051 4.56c49.695 11.554 84.382 55.219 84.382 106.226 0 60.194-48.975 109.171-109.167 109.171-51.367 0-96.303-36.464-106.822-86.66M261.939 396.161l4.579-0.957M261.939 396.161l4.578-0.958c0.002 0 0.002 0.002 0.002 0.002M261.939 396.161c-0.587-2.808-3.067-4.822-5.937-4.822-2.871 0-5.351 2.014-5.937 4.822M266.519 395.204l-21.034-0.003 4.579 0.96M250.065 396.161c-10.976 52.368-57.828 90.382-111.406 90.382-62.775 0-113.846-51.071-113.846-113.85 0-53.186 36.191-98.741 88.009-110.786M250.065 396.161l-4.579-0.957c-10.523 50.195-55.46 86.66-106.826 86.66-60.191 0-109.168-48.976-109.168-109.171 0-51.007 34.688-94.675 84.385-106.228 0.001 0 0.002 0 0.004 0l-1.059-4.558M112.822 261.908c2.746-0.635 4.692-3.087 4.692-5.907s-1.947-5.273-4.692-5.907v11.814zM504 139.306c0-72.052-58.611-130.662-130.659-130.662-50.514 0-95.786 29.419-117.339 73.228-21.556-43.809-66.833-73.228-117.342-73.228-72.049 0-130.66 58.611-130.66 130.662 0 50.475 28.416 94.986 71.899 116.694-43.483 21.706-71.899 66.216-71.899 116.693 0 72.051 58.611 130.663 130.66 130.663 50.51 0 95.786-29.421 117.342-73.228 21.553 43.807 66.825 73.228 117.339 73.228 72.049 0 130.659-58.611 130.659-130.663 0-50.476-28.416-94.986-71.899-116.693 43.483-21.708 71.899-66.219 71.899-116.695z"></path>
</svg>
