<!-- Generated by IcoMoon.io -->
<svg xmlns="http://www.w3.org/2000/svg" viewBox="0 0 512 512">
<path d="M171.251 408.357c0 2.066-2.375 3.717-5.368 3.717-3.406 0.31-5.78-1.341-5.78-3.717 0-2.063 2.374-3.714 5.368-3.714 3.097-0.31 5.78 1.341 5.78 3.714zM139.149 403.713c-0.722 2.063 1.342 4.437 4.439 5.056 2.684 1.034 5.78 0 6.4-2.063s-1.342-4.439-4.439-5.368c-2.684-0.722-5.678 0.31-6.4 2.375zM184.774 401.957c-2.994 0.722-5.058 2.685-4.749 5.058 0.31 2.063 2.994 3.408 6.090 2.683 2.994-0.722 5.058-2.683 4.749-4.749-0.31-1.961-3.096-3.303-6.090-2.993zM252.697 6.396c-143.174 0-252.697 108.697-252.697 251.871 0 114.478 72.052 212.439 174.968 246.917 13.213 2.373 17.858-5.781 17.858-12.49 0-6.4-0.31-41.705-0.31-63.38 0 0-72.258 15.483-87.432-30.764 0 0-11.768-30.036-28.697-37.781 0 0-23.639-16.205 1.651-15.895 0 0 25.703 2.063 39.845 26.632 22.606 39.844 60.49 28.388 75.252 21.573 2.375-16.514 9.084-27.973 16.517-34.786-57.703-6.4-115.922-14.761-115.922-114.065 0-28.387 7.845-42.632 24.361-60.8-2.684-6.709-11.458-34.374 2.684-70.090 21.574-6.71 71.226 27.871 71.226 27.871 20.645-5.78 42.839-8.774 64.827-8.774 21.986 0 44.18 2.994 64.825 8.774 0 0 49.651-34.684 71.227-27.871 14.142 35.819 5.368 63.38 2.683 70.090 16.517 18.271 26.632 32.516 26.632 60.8 0 99.614-60.8 107.56-118.502 114.065 9.498 8.154 17.549 23.639 17.549 47.895 0 34.788-0.31 77.834-0.31 86.298 0 6.71 4.749 14.863 17.858 12.49 103.225-34.271 173.212-132.232 173.212-246.709 0-143.174-116.13-251.871-259.303-251.871zM100.335 362.423c-1.341 1.031-1.032 3.405 0.722 5.366 1.651 1.654 4.026 2.375 5.368 1.034 1.342-1.034 1.032-3.408-0.722-5.368-1.651-1.651-4.026-2.375-5.368-1.031zM89.187 354.060c-0.722 1.344 0.31 2.995 2.374 4.027 1.651 1.031 3.716 0.722 4.439-0.722 0.722-1.341-0.31-2.995-2.374-4.027-2.064-0.62-3.716-0.31-4.439 0.722zM122.632 390.808c-1.651 1.341-1.032 4.439 1.342 6.4 2.374 2.375 5.368 2.685 6.71 1.034 1.342-1.344 0.722-4.439-1.342-6.4-2.271-2.375-5.368-2.685-6.71-1.034zM110.865 375.635c-1.651 1.031-1.651 3.714 0 6.090 1.651 2.373 4.439 3.408 5.781 2.373 1.651-1.341 1.651-4.024 0-6.4-1.445-2.373-4.129-3.405-5.781-2.063z"></path>
</svg>
