<!-- Generated by IcoMoon.io -->
<svg xmlns="http://www.w3.org/2000/svg" viewBox="0 0 512 512">
<path d="M486.325 286.927v168.601c0 22.005-19.138 39.905-42.657 39.905h-375.379c-23.519 0-42.657-17.904-42.657-39.905v-168.601c0-4.408 3.818-7.982 8.531-7.982s8.532 3.571 8.532 7.982v168.601c0 13.2 11.48 23.945 25.595 23.945h92.776v-134.684c0-22.005 19.138-39.905 42.657-39.905h104.508c23.519 0 42.656 17.904 42.656 39.905v102.757c0 4.407-3.818 7.982-8.531 7.982-4.712 0-8.531-3.571-8.531-7.982v-102.757c0-13.2-11.48-23.945-25.591-23.945h-104.508c-14.113 0-25.596 10.743-25.596 23.945v134.683h69.317v-125.704c0-4.408 3.818-7.982 8.531-7.982s8.531 3.571 8.531 7.982v125.704h179.157c14.113 0 25.596-10.743 25.596-23.945v-168.601c0-4.408 3.818-7.982 8.531-7.982s8.531 3.571 8.531 7.982zM55.492 144.262c0 4.407 3.818 7.982 8.532 7.982 464.176 0 441.164 0.776 444.553-1.655 1.773-1.274 2.932-3.114 3.249-5.221 0.477-3.208 3.538 4.682-56.067-123.996-1.353-2.919-4.428-4.806-7.829-4.806h-383.911c-3.399 0-6.478 1.887-7.828 4.806l-55.453 119.719c-0.98 2.117-0.704-1.243-0.704 52.69 0.061 36.298 31.636 65.835 70.381 65.835 26.639 0 49.885-13.957 61.834-34.473 26.689 45.883 96.985 45.933 123.722 0.031 26.717 45.865 96.981 45.876 123.705 0 11.94 20.5 35.19 34.443 61.851 34.443 38.81 0 70.381-29.538 70.381-65.846 0-4.407-3.818-7.982-8.531-7.982s-8.531 3.571-8.531 7.982c0 27.505-23.919 49.883-53.321 49.883-29.4 0-53.321-22.379-53.321-49.883 0-4.407-3.818-7.982-8.53-7.982s-8.531 3.571-8.531 7.982c0 27.505-23.921 49.883-53.321 49.883-29.404 0-53.321-22.379-53.321-49.883 0-4.407-3.818-7.982-8.531-7.982s-8.531 3.571-8.531 7.982c0 27.505-23.919 49.883-53.321 49.883-28.746 0-53.321-21.614-53.321-50.281 0-4.407-3.818-7.982-8.53-7.982s-8.531 3.571-8.531 7.982c0 28.426-24.421 50.281-53.321 50.281-29.355 0-53.275-22.381-53.321-49.883v-47.849l52.525-113.392h372.709l48.060 103.757h-426.368c-4.712 0-8.532 3.571-8.532 7.982z"></path>
</svg>
