<!-- Generated by IcoMoon.io -->
<svg xmlns="http://www.w3.org/2000/svg" viewBox="0 0 496 512">
<path d="M248.055 128.861c-70.375 0-127.139 56.765-127.139 127.138 0 70.376 56.765 127.14 127.139 127.14s127.14-56.765 127.14-127.14c0-70.374-56.766-127.138-127.14-127.138zM248.055 338.658c-45.479 0-82.657-37.070-82.657-82.659 0-45.588 37.069-82.656 82.657-82.656s82.656 37.069 82.656 82.656c0 45.589-37.18 82.659-82.656 82.659zM410.050 123.659c0 16.487-13.279 29.654-29.654 29.654-16.488 0-29.657-13.279-29.657-29.654s13.281-29.654 29.657-29.654c16.375 0 29.654 13.279 29.654 29.654zM494.257 153.757c-1.882-39.725-10.954-74.912-40.057-103.903-28.99-28.991-64.176-38.064-103.901-40.056-40.942-2.324-163.654-2.324-204.596 0-39.614 1.881-74.801 10.955-103.903 39.946s-38.064 64.178-40.056 103.903c-2.324 40.941-2.324 163.656 0 204.595 1.881 39.725 10.955 74.913 40.056 103.904 29.102 28.993 64.178 38.064 103.903 40.057 40.941 2.322 163.654 2.322 204.596 0 39.725-1.882 74.911-10.956 103.901-40.057 28.993-28.99 38.067-64.178 40.057-103.904 2.325-40.94 2.325-163.543 0-204.484zM441.365 402.173c-8.631 21.688-25.339 38.397-47.139 47.139-32.643 12.945-110.097 9.957-146.172 9.957-36.073 0-113.641 2.877-146.172-9.957-21.688-8.633-38.397-25.341-47.138-47.139-12.946-32.643-9.959-110.1-9.959-146.173s-2.877-113.638 9.959-146.171c8.631-21.688 25.339-38.397 47.138-47.139 32.642-12.946 110.1-9.959 146.172-9.959s113.639-2.877 146.172 9.959c21.688 8.631 38.397 25.339 47.139 47.139 12.945 32.642 9.959 110.1 9.959 146.171 0 36.074 2.988 113.642-9.959 146.173z"></path>
</svg>
