<!-- Generated by IcoMoon.io -->
<svg xmlns="http://www.w3.org/2000/svg" viewBox="0 0 512 512">
<path d="M414.024 185.621c33.305-25.447 21.8-75.774-19.815-86.204-10.873-2.725-22.13-2.159-32.45 1.519l-33.066-53.578c-13.455-21.804-46.827-22.383-61.153-1.122-40.672 60.347-94.852 111.672-159.179 150.62-3.663 2.213-5.020 6.79-2.853 10.512 0.347 0.597 55.118 89.333 55.48 89.921 2.356 3.815 7.571 5.128 11.657 2.921 4.081-2.204 5.478-7.089 3.123-10.904l-51.361-83.225c61.337-38.359 115.659-89.144 157.569-151.329 7.495-11.123 24.919-10.779 31.936 0.59l118.399 191.848c7.025 11.382-1.396 25.658-15.421 26.169-78.675 2.868-155.705 21.693-226.131 55.392-0.298 0.142-80.148 43.276-85.647 46.247-14.272 7.71-32.588 3.119-40.827-10.233l-43.224-70.041c-8.239-13.351-3.332-30.486 10.94-38.195l52.022-28.099c4.081-2.203 5.479-7.087 3.123-10.904-2.356-3.821-7.578-5.129-11.656-2.922l-52.022 28.099c-22.422 12.11-30.131 39.028-17.188 60.006l43.224 70.038c12.947 20.978 41.72 28.188 64.141 16.079l1.968-1.063 53.367 86.471c7.665 12.421 24.615 16.675 37.898 9.5l18.717-10.111c13.28-7.173 17.823-23.029 10.155-35.454l-37.824-61.285c-2.357-3.817-7.575-5.128-11.656-2.921-4.082 2.204-5.479 7.087-3.123 10.904l37.821 61.285c2.95 4.781 1.204 10.884-3.909 13.644l-18.716 10.111c-5.111 2.76-11.635 1.123-14.586-3.657l-53.367-86.471 68.327-36.906c66.861-31.958 141.242-50.731 218.831-53.558 26.889-0.981 42.972-28.339 29.537-50.105l-33.070-53.584zM411.589 130.484c8.424 13.651 5.397 30.591-6.264 41.040l-34.865-56.493c15.284-4.195 32.568 1.584 41.129 15.456zM495.053 94.993l-22.080 11.927c-4.084 2.206-9.3 0.895-11.656-2.921-2.358-3.817-0.959-8.701 3.123-10.904l22.080-11.927c4.084-2.206 9.3-0.894 11.656 2.921 2.357 3.817 0.959 8.701-3.123 10.904zM400.096 49.492l5.385-18.796c1.219-4.258 5.897-6.785 10.45-5.645 4.553 1.142 7.255 5.52 6.034 9.777l-5.384 18.796c-1.219 4.248-5.887 6.787-10.454 5.645-4.552-1.142-7.254-5.519-6.034-9.778zM511.707 180.235c-1.024 3.567-4.471 5.919-8.238 5.919-1.545 0-0.464 0.166-22.306-5.31-4.552-1.143-7.255-5.518-6.034-9.778 1.219-4.258 5.898-6.784 10.45-5.645l20.093 5.037c4.552 1.141 7.255 5.518 6.035 9.778z"></path>
</svg>
