<!-- Generated by IcoMoon.io -->
<svg xmlns="http://www.w3.org/2000/svg" viewBox="0 0 640 512">
<path d="M570.321 127.641c0.4 5.598 0.4 11.197 0.4 16.795 0 170.746-129.957 367.483-367.483 367.483-73.177 0-141.155-21.193-198.338-57.981 10.397 1.199 20.393 1.599 31.191 1.599 60.38 0 115.963-20.394 160.349-55.183-56.782-1.199-104.368-38.387-120.763-89.571 7.998 1.2 15.996 1.999 24.394 1.999 11.596 0 23.194-1.6 33.989-4.398-59.181-11.997-103.568-63.981-103.568-126.76v-1.6c17.194 9.597 37.189 15.595 58.381 16.394-34.789-23.194-57.581-62.78-57.581-107.567 0-23.992 6.397-45.985 17.594-65.18 63.581 78.376 159.15 129.559 266.316 135.157-1.999-9.597-3.2-19.593-3.2-29.59 0-71.178 57.583-129.16 129.16-129.16 37.188 0 70.778 15.595 94.37 40.787 29.191-5.598 57.182-16.395 81.975-31.19-9.598 29.991-29.991 55.184-56.783 71.177 25.992-2.798 51.184-9.998 74.376-19.993-17.593 25.591-39.587 48.383-64.779 66.778z"></path>
</svg>
